<svg height="800" viewBox="-10.15 0 105.75 105.75" width="800" xmlns="http://www.w3.org/2000/svg"><path d="m1171.511 1158.816a5.355 5.355 0 0 1 -2.278-3.414 4.362 4.362 0 0 1 3.419-1.142c.544-1.066.795-2.434 1.424-3.418-.113-4.639.271-9.764-.286-13.954-.808-.455-1.947.78-2.279 1.706-.2 1.317-.935 2.1-1.138 3.416-1.919 2.545-3.677 5.246-5.694 7.691a5.086 5.086 0 0 0 -2.281 1.14c-.593 0-1.2.006-1.8.014-3.437.043-6.877.086-8.743-1.44-.544-1.351-1.242-2.553-1.71-3.983-.51-1.364-.365-3.777.856-4.278 1.6-.265 1.741.92 1.994 1.992 2.343-.345 2.313 1.677 4.27 1.714 3.232 0 4.722-1.741 6.553-3.134-.054-.968.887-1.839 1.139-2.85.165-.652.286-1.4.573-2.275a11.433 11.433 0 0 0 .567-1.428c.335-2.5.054-4.919-1.422-6.548h-4.275a18.132 18.132 0 0 1 -7.12-1.994c-.251-.416-.429-.906-1.138-.856a29.622 29.622 0 0 0 -2.849-3.705 20.741 20.741 0 0 0 -2.849-5.41 11.027 11.027 0 0 1 -2.868-.12 12.492 12.492 0 0 0 -2.258-.164c-3.2.19-5.636 4.17-8.55 1.993.014-2.168 1.687-2.683 3.136-3.42 1.2-.974 2.785-1.584 3.987-2.562 3.08-.067 5.985-.8 8.831-.284 3.723 2.072 4.94 6.648 7.69 9.685 1.987 1.051 4.794 1.279 7.975 1.141.919-.793.524-2.9 1.424-3.7.217-1.307 1.459-1.584 2-2.565a26.489 26.489 0 0 0 1.994-2.279 15.567 15.567 0 0 1 -4.846-.568c-.214-.009-.443 0-.672 0-.649.018-1.3.035-1.6-.291a3.189 3.189 0 0 0 -.968 0c-.591.058-1.182.114-1.313-.286-3.52 0-5.587-1.441-7.975-2.563-.7-1.293-2.143-1.924-3.133-3.131-.083-.1.094-.5 0-.574a4.381 4.381 0 0 1 -1.14-1.42c-.367-.592-.885-1.168-1.139-1.711a46.537 46.537 0 0 1 -1.426-4.557c-.033-.1-.271 0-.287-.285a7.839 7.839 0 0 0 -.566-2c-.1-.283-.135-.715-.287-1.137-.057-.162-.539-.734-.57-.857-.265-1.024 0-2.168-.57-3.133v-7.125c.157-1.738.71-3.084.853-4.84.842-1.246 1.428-2.75 2.282-3.986.651-.392.915-1.172 1.425-1.706.572-.48 1.322-.769 1.425-1.711-.49-4.132.069-7.576 0-11.965.742-1.822 1-4.131 3.416-4.273 2.153-.254 2.247 1.554 3.7 1.994 2.512.625 4.175 2.092 6.548 2.845a11.55 11.55 0 0 0 3.705 3.422 29.628 29.628 0 0 1 3.7.573 49.489 49.489 0 0 0 5.151-.034 33.734 33.734 0 0 1 5.39.034.773.773 0 0 0 .95-.266.731.731 0 0 1 .756-.308 5.338 5.338 0 0 0 2.28.285c2.245-.224 4.392-.548 6.553-.851a16.539 16.539 0 0 1 3.134-.573c1.078-.158 1.54-.926 2.847-.854 2.042-1.283 3.46-3.19 5.413-4.555.552-1.067 1.814-1.419 2.565-2.28 1.1-.513 1.684-1.544 2.847-2a1.991 1.991 0 0 1 .854-.571c.142 0 .289 0 .436-.006.632-.014 1.263-.029 1.561.293 1.716 2.255-.053 5.974-.57 8.543.151 1.1-.509 1.39-.288 2.564-.816.041.249 1.955-.569 2-.172.678.359 2.067-.284 2.28-.174.678.356 2.068-.286 2.277a5.99 5.99 0 0 0 3.136 2.281 13.078 13.078 0 0 0 2.561 2.561 2.647 2.647 0 0 0 1.14 1.707 71.583 71.583 0 0 1 2.278 9.117v7.4c-.522 3.282-2.319 5.279-3.7 7.7-1.958 1.463-3.775 3.062-5.7 4.558-2.052 1.364-3.75 3.08-6.552 3.7-2.129 1.29-5.575 1.262-7.69 2.563-2.6.73-4.46 2.187-7.693 2.279-.6.09.3.991.858.86a2.553 2.553 0 0 0 1.138 1.138 12.585 12.585 0 0 0 1.991 2.561c1.1 3.08 2.991 5.949 4.56 8.832.176.322.119.57.288.853 2.25 3.892 5.766 8.172 11.106 9.4 2.939-.572 3.264-3.764 6.836-3.7 1.375.84.862 3.8.284 5.125a24.887 24.887 0 0 1 -2.563 3.705 1.263 1.263 0 0 0 -1.14.57c-.172.4-1.093.045-1.138.571h-3.7a16.117 16.117 0 0 1 -9.12-5.129c-2.7-1.949-4.408-4.89-6.262-7.693-.632-1.741-1.086-3.662-2.279-4.838.3 1.06-1.071.448-.858 1.424.494.174-.019 1.352.57 1.426-.167 1.589.652 2.2.567 3.7a34.19 34.19 0 0 1 2.283 6.264c1.072 2.255 2.631 4.019 3.417 6.555 1.321 1.148 3.775 1.164 4.558 2.846-.047.334.061.51.285.574a4.573 4.573 0 0 1 -1.141 3.7c-.5.155-1.181.145-1.425.569-3.722-.168-5.68-2.1-7.691-3.987-2.026-5.47-5.557-9.443-6.547-15.953a40.339 40.339 0 0 0 -.287-5.41c-.818 1.178-.252 3.735-.856 5.125a20.735 20.735 0 0 1 -.855 5.131c-.061 4.336.108 8.639 0 12.248a29.2 29.2 0 0 1 -1.994 5.7 9.152 9.152 0 0 1 -5.194 1.766 10.065 10.065 0 0 1 -1.067-.061zm-6.265-72.921a10.555 10.555 0 0 1 -1.994.572c-1.367.718-2.212 1.963-3.42 2.844-.778 1.314-2.151 2.03-2.564 3.706a55.579 55.579 0 0 0 -.567 7.69c.48.469.351 1.547.854 2a10.6 10.6 0 0 0 1.143 1.988 13.787 13.787 0 0 0 2.844 3.136c2.819.41 5.674.781 8.548 1.141 7.626.088 14.262.929 21.933.283.258-.6 1.607-.1 1.708-.856a4.592 4.592 0 0 0 2-.568c1.06-.743 2.691-.913 3.7-1.709a33.812 33.812 0 0 0 3.7-8.262v-4.56c-.66-2.759-1.713-5.125-2.564-7.7-.376-.289-1.048-.277-1.424-.566a1.067 1.067 0 0 0 -1.137-1.139 1 1 0 0 1 -.857-.146.99.99 0 0 0 -.858-.143c-.359.015-.4.365-.852.289h-6.268a3.1 3.1 0 0 0 -1.359.3 2.979 2.979 0 0 1 -1.775.266 56.123 56.123 0 0 0 -9.4.427 56.227 56.227 0 0 1 -9.4.428c-.337.53-1.482.233-1.991.584zm-10.823 1.138c.2 1.057-.488 1.223-.288 2.279-.659.2-.761.949-1.423 1.139-.528 2.606-1.857 4.41-2.279 7.124.726 2.412 1.44 4.829 3.135 6.268.112.266.223.177.194.088-.015-.05-.073-.1-.194-.088-2.03-3.754-1.305-11.02 1.139-13.674.233-.806-.4-.736-.284-1.422.49-.367.35-1.357 1.138-1.427.079-.334 1.255-1.181 0-1.142-.171-.272-.306-.377-.417-.377-.36-.001-.467 1.099-.721 1.232zm56.117 8.834c-.167.59-.6.918-.857 1.422.051.488-1.613 1.119-.284 1.141 1.479-.04 1.434-1.606 2.279-2.281.161-.595.706-.81.572-1.708.24-.182.887-1.335.282-1.424a10.135 10.135 0 0 1 -1.992 2.85zm-2.849-2.279c-.329.449-1.49 1.523-.571 2.279a15.891 15.891 0 0 1 2.562-3.42.787.787 0 0 0 -.57-.855 15.872 15.872 0 0 1 -1.421 1.996zm-58.391-3.988c.005 1.035-.165 2.25.569 2.566a4.956 4.956 0 0 1 1.706-2.566c-.823-2.137.31-4.316.858-5.982h-.858c-.775 1.982-1.556 3.955-2.275 5.982zm60.955.853c.652.807 2.238-1.342.858-1.7-.256.593-.873.831-.861 1.698zm-4.271 0c.09-.671.992-.526.854-1.422-.427-.429-.509-1.2-1.141-1.422.267 1.358-.762 2.258.283 2.842zm.854-4.842c.9.241.811 1.469 1.712 1.711 1.107-1.16.092-2.72-.855-3.416-.278.573-.589 1.123-.861 1.703zm-50.7-1.994c1.018.317 1.446 1.215 2.568 1.427.882-.254 1.323-.953 2.274-1.139a4.582 4.582 0 0 1 .57-2.566c-1.3-.41-1.755-1.664-3.415-1.709-.575 1.429-1.641 2.354-2.005 3.985zm53.269-2.277c.852.57.854 1.99 1.993 2.277 1.223-1.219-.136-3.517-.852-4.554a5.642 5.642 0 0 0 -1.148 2.275zm-5.412.57c.58.082.557.774 1.139.858 0-.953.925-.977.853-2-.332-.427-.352-1.164-.853-1.424-.434.806-1.161 1.318-1.146 2.564zm-50.99-.57c.847.7 1.181-.926 1.709-1.427.345-.889 1.228-1.238 1.423-2.279-.4-.067-.476-.467-.853-.568a17.68 17.68 0 0 0 -2.284 4.272zm47.569 0c.592-.566.008-1.22-.568-1.427-.46.427-.424 1.624.562 1.425zm-32.473-5.413c-.543 1.641-1.841 2.527-2.281 4.271a2.864 2.864 0 0 0 2 1.141c.1-2.174 1.877-2.685 2.279-4.558-.755-.118-.875-.873-1.75-.873a1.777 1.777 0 0 0 -.254.018zm22.506 4.842c-.357-2.159.746-2.864.852-4.558-.777.207-.575-.566-1.139-.566a11.465 11.465 0 0 0 -1.425 2.561c.536.661 1.179 1.213.57 2.28q.079 0 .154 0a1.477 1.477 0 0 1 .981.282zm-18.516 0c.187-.4.839-.345 1.49-.287a3.875 3.875 0 0 0 1.071 0c-.043-1.2-1.277-1.193-1.994-1.711.142.838-1.424 1.405-.573 1.997zm6.706-.282c.767.058 1.533.118 1.837-.289a2.186 2.186 0 0 1 0-2.848c-.419-.147-.716-.424-1.139-.569a19.02 19.02 0 0 1 -2 3.7 2.7 2.7 0 0 1 .5-.04c.252.003.524.024.796.045zm4.684-.286c.532.057 1.063.113 1.141-.288a.563.563 0 0 1 -.713-.284.561.561 0 0 0 -.712-.284c-.068.406-.466.48-.571.853a1.161 1.161 0 0 1 .317-.036 5.342 5.342 0 0 1 .532.038zm9.686 0h3.7c.039-.8-.7-.818-1.425-.853-.426-.33-.695-.822-1.424-.858-.118.737-.85.856-.857 1.71zm9.4-5.978c-.426 1.471-1.309 2.486-1.71 3.985.581.083.558.771 1.14.857.408-1.687 2.179-2 1.712-4.557a.908.908 0 0 1 -.593-.141.914.914 0 0 0 -.475-.147q-.041-.004-.079-.001zm-52.129 4.842c1.065-.17.882-1.59 1.713-2-.1-1.034 1.879-1.766.566-2.28-.783 1.405-2.088 2.285-2.284 4.276zm9.4-2a17.905 17.905 0 0 0 3.132 1.708c.649-1.917 2.062-3.066 2.85-4.841-.408-.825-1.369-1.1-1.993-1.709-.864 2.084-3.303 2.59-3.995 4.842zm47-1.139c.168 1.066.346 2.125 1.425 2.279-.207-.777.565-.571.57-1.139-.466-.5-.778-1.153-1.745-1.153a2.4 2.4 0 0 0 -.254.013zm-21.934.568c.581.274 1.13.584 1.707.856.247-1.564 1.4-2.215 1.71-3.7-.366-.491-.588-1.123-1.424-1.139-.389 1.602-1.474 2.512-1.997 3.983zm-10.255-.284c.369.488.59 1.119 1.424 1.14a15.567 15.567 0 0 0 1.422-2.564c-.66-.193-.76-.948-1.422-1.138-.314 1.016-1.213 1.444-1.427 2.561zm23.644-5.7c-1.007 1.656-1.842 3.474-2.849 5.131a6.561 6.561 0 0 0 2.849 1.422c.841-1.247 1.387-2.79 2.278-3.987 0-1.232-1.418-1.051-1.424-2.281-.328-.012-.383-.3-.727-.3a.77.77 0 0 0 -.13.017zm-41.589 4.558c.08.077.433-.136.286-.284a.066.066 0 0 0 -.049-.016c-.124.001-.367.179-.241.302zm27.06-4.841c-.67.464-.812 1.466-1.423 1.994-.35.894-1.228 1.582-.286 2.281 1.015-.222 1.071-1.4 1.709-2 .346-.889 1.232-1.24 1.424-2.28-.58-.084-.554-.771-1.135-.858-.022.376-.374.404-.292.865zm-13.388 3.136c.741.3 1.06 1.026 1.994 1.139.24-1.284 1.472-1.571 1.709-2.852-.749-.391-1.079-1.2-1.991-1.423-.219 1.402-1.569 1.666-1.715 3.138zm24.5-6.271c-.014.367-.364.394-.283.857a7.961 7.961 0 0 0 -1.427 2.846c-.7.651-1.687 2.012-.569 2.851 1.425-.191 1.183-2.046 2.279-2.564.23-1.385 1.3-1.934 1.712-3.133-.618-.142-.617-.9-1.377-.9a1.548 1.548 0 0 0 -.34.045zm-38.74 5.7c.582.084.559.772 1.138.857.734-1.833 2.293-2.835 3.136-4.559-.823-.128-.674-1.228-1.424-1.422-1.016 1.645-2.233 3.09-2.856 5.123zm-2.846 0c-.3.018-.226.365.284.287.008-.211-.059-.477-.151-.477-.047-.002-.093.053-.139.189zm51.088-1.25c.126-.27.088-.54-.384-.457-.023 0 .015.265 0 .283-.025.035-.273.59-.284.572.159.218.517-.09.662-.399zm-41.408.4c.08.08.438-.139.288-.288a.07.07 0 0 0 -.049-.016c-.128-.003-.367.175-.245.302zm15.955-3.989c.192 1.615-.924 1.92-1.14 3.133.744.113.859.852 1.711.856.578-1.7 2.2-2.358 2.562-4.273h-7.69c-.2.763.589.548.856.851.247.418.424.906 1.137.853.853-.4 1.1-1.429 2.358-1.429.06-.002.129.001.2.007zm-13.959 1.138a8.686 8.686 0 0 0 3.135 2.279c.82-.13.673-1.224 1.422-1.422.18-.771 1.193-.713 1.144-1.714a3.587 3.587 0 0 1 -2.744-.1 4.022 4.022 0 0 0 -2.67-.179c.032.508-.353.596-.293 1.133zm25.07 2a40.879 40.879 0 0 1 2.278-3.7 3.213 3.213 0 0 0 -.945-.15c-2.38-.012-3.289 3.042-1.339 3.843zm10.537-4.839c0 .845-.742.967-.856 1.706 1.116.5 1.121 2.11 2.565 2.278a4.956 4.956 0 0 1 .855-1.14c-.092-1.332-1.615-1.235-1.709-2.561-.324-.015-.383-.3-.72-.3a.754.754 0 0 0 -.14.009zm-46.433 0c.187 1.237-.372 3.217.288 3.984a8.174 8.174 0 0 1 1.993-3.135c-.157-1.006 1.009-.7.852-1.707.351-.506.558-1.156 1.142-1.422-1.318-.775-2.924-1.257-4.275-2zm9.686 1.987a.781.781 0 0 0 .8-.12.743.743 0 0 1 .63-.16v-.284a2.147 2.147 0 0 1 -.608 0c-.133-.013-.266-.025-.386-.025-.351-.013-.592.089-.441.582zm23.073-.281c.08.077.434-.14.287-.284a.07.07 0 0 0 -.05-.017c-.127-.007-.366.166-.242.294zm-26.49-2.281c.7.166 1.512 1.695 2.281.857-.643-.061-1.291-1.062-1.871-1.062a.541.541 0 0 0 -.419.198zm41.588-1.993c1.011.983 1.662 2.325 3.135 2.849.873-1.947-1.981-2.045-2-3.99h-.855c-.09.381-.404.537-.285 1.135zm-3.985 1.993c-.3.016-.226.367.283.284.007-.209-.06-.474-.15-.474-.045-.006-.092.047-.138.183zm6.264-4.273c.755.386.778 1.5 2 1.427-.266-1.321 1.109-2.484.283-3.419-.499.927-1.65 1.199-2.288 1.988zm-29.909 42.158a1.439 1.439 0 0 0 .856-.85c2.016-.027 2.121 1.861 3.987 1.988 1.144.2 1.625-.271 2.566-.282 1.269-.535 1.723-1.886 3.7-1.706 1.786 2.268-1.463 3.632-2.849 4.553-.924-.162-1.327.2-1.993.289-3.187-.249-5.823-1.029-6.272-3.999zm-9.972-2.565c-1.8-3.482-.778-10.826 3.988-9.4 1.4 2.023 2.356 7.6.289 9.685a4.205 4.205 0 0 1 -1.875.441 4.371 4.371 0 0 1 -2.407-.733zm14.242-1.7a1.851 1.851 0 0 1 3.139-1.139 2.767 2.767 0 0 1 -.287 2.843c-.406-.019-.808-.043-.856.287a2.15 2.15 0 0 1 -2.001-2.003zm14.817.854c-1.774-.032-1.777-1.832-2.848-2.565a15.979 15.979 0 0 1 -.287-4.27c.6-1.772 1.934-2.821 3.135-3.993h.568c3.426.183 2.805 4.415 2.849 7.978-.779 1.2-1.1 2.865-3.082 2.865q-.166-.012-.34-.027z" transform="translate(-1132.771 -1053.125)"/></svg>