<svg xmlns="http://www.w3.org/2000/svg" xml:space="preserve" width="512" height="512" viewBox="0 0 135.467 135.467"><path d="M14.034 64.177h-78.211v78.212h78.212z" style="fill:#38a739;fill-opacity:1;stroke:none;stroke-width:.459853;stroke-linecap:round;stroke-dasharray:none;stroke-opacity:1" transform="scale(1.22475 .7071) rotate(-45)"/><path d="M0 64.176v17.38l67.733 39.107 67.734-39.106v-17.38l-67.734 39.106L0 64.176z" style="fill:#a77e38;fill-opacity:1;stroke:none;stroke-width:.413927;stroke-linecap:round;stroke-dasharray:none;stroke-opacity:1"/><path d="M20.8 76.328v16.557M44.267 88.061v16.557M91.2 88.061v16.557M114.668 76.328v16.557" style="fill:#38a739;fill-opacity:1;stroke:none;stroke-width:.413927;stroke-linecap:round;stroke-dasharray:none;stroke-opacity:1"/><path d="m1411.6 2434.3 429.6 248.03V2328l-214.8-248.03h-214.8z" style="fill:#babdb6" transform="matrix(.082 0 0 .082 -85.755 -132.5)"/><path d="m1841.2 2328 490.98-283.46v354.33l-490.98 283.46z" style="fill:#d3d7cf" transform="matrix(.082 0 0 .082 -85.755 -132.5)"/><path d="m2178.7 2203.9-76.719 44.281v88.594l76.719-44.281zm-92.062 53.156-92.063 53.156v88.562l92.063-53.156zm92.062 53.156-76.719 44.281v70.875l76.719-44.312zm-92.062 53.156-92.063 53.125v70.875l92.063-53.156z" style="fill:#3465a4" transform="matrix(.082 0 0 .082 -85.755 -132.5)"/><path d="m1626.4 2079.9 276.17 318.9 490.98-283.46-276.17-318.9z" style="fill:#c00" transform="matrix(.082 0 0 .082 -85.755 -132.5)"/><path d="M1350.2 2079.9h276.17l490.98-283.46h-276.17z" style="fill:#a40000" transform="matrix(.082 0 0 .082 -85.755 -132.5)"/><path d="M1565 2522.8v-265.75l122.74 70.866v265.75z" style="fill:#8f5902" transform="matrix(.082 0 0 .082 -85.755 -132.5)"/><path d="M2178.7 2257.1v-17.717l-76.715 44.291v17.716l76.715-44.291z" style="fill:#204a87" transform="matrix(.082 0 0 .082 -85.755 -132.5)"/><path d="m2102 2301.4-15.343 8.858v-17.717l15.343-8.858v17.716z" style="fill:#babdb6" transform="matrix(.082 0 0 .082 -85.755 -132.5)"/></svg>